<!--
Created using
- the CS Bristol font,
- https://danmarshall.github.io/google-font-to-svg-path/ and
- https://yqnn.github.io/svg-path-editor/
-->
<svg id="logo" xmlns="http://www.w3.org/2000/svg"
     viewBox="0 0 107.01813416584747 23.688027373428874">
    <path d="m97.03 17.23v-6.09h4.11v5.28l-2.45 1.68.41.52 1.58-1.08 2.4 2.14 3.94-2.9-.41-.53-1.39 1.03-.72-.77V2.16l2.52-1.63-.41-.53-2.35 1.49-1.8-1.49-3.77 2.52.41.55 1.25-.81.79.64v5.19h-4.11V2.74h-.69l-4.2 2.85v2.62h-2.57v4.08h.72V10.9h1.85v4.24l3.09-2.01V4.34l1.08-.72v12.84a3.88 3.88 0 00-.86-.59 2.8 2.8 0 00-1.25-.29c-1.49 0-3.24 1.2-5.33 3.57l.48.53c.81-.78 1.5-1.21 2.16-1.3a1.96 1.96 0 01.27-.02c.6 0 1.19.28 1.81.84a7.1 7.1 0 01.52.53l2.92-2.5zM7.95 19.68l6.57-4.15V9.12l-3.67-1.78 2.35-2.2a5.5 5.5 0 001.33-2.12 7.3 7.3 0 00.42-2.47V.24h-.67c-.09 1.34-1.32 2.33-2.9 2.33-1.18 0-2.57-.6-3.58-1.56L1.2 5.16v4.82l3.48 2.26-3.09 2.9C.51 16.15 0 17.5 0 18.77a4.76 4.76 0 003.67 4.78 5.47 5.47 0 001.25.14 7.17 7.17 0 002.82-.61c1.63-.7 3.4-2 5.37-4.02l-.48-.48c-2.14 1.7-4.71 2.54-7.37 2.54-2.28 0-4.54-.77-4.54-2.26a1.13 1.13 0 01.66-1.02c.38-.21.92-.32 1.6-.32 1.92 0 3.69.77 4.97 2.16zm54.96 0 6.57-4.15V9.12l-3.67-1.78 2.35-2.2a5.5 5.5 0 001.33-2.12 7.3 7.3 0 00.42-2.47V.24h-.67c-.09 1.34-1.32 2.33-2.9 2.33-1.18 0-2.57-.6-3.58-1.56l-6.6 4.15v4.82l3.48 2.26-3.09 2.9c-1.08 1.01-1.59 2.36-1.59 3.63a4.76 4.76 0 003.67 4.78 5.47 5.47 0 001.25.14 7.17 7.17 0 002.82-.61c1.63-.7 3.4-2 5.37-4.02l-.48-.48c-2.14 1.7-4.71 2.54-7.37 2.54-2.28 0-4.54-.77-4.54-2.26a1.13 1.13 0 01.66-1.02c.38-.21.92-.32 1.6-.32 1.92 0 3.69.77 4.97 2.16zm19.05-2.52V3.17l2.38 1.2 3.81-2.33-.4-.6-.99.6L82.71 0l-6.34 3.86c.62-1 1.51-1.87 2.59-2.42l-.33-.62a13.05 13.05 0 00-4.42 2.87C73 4.95 72.16 6.5 71.8 8.44a12.41 12.41 0 00-.21 2.29 9.88 9.88 0 001.18 4.82c1.3 2.33 3.59 3.87 6.5 4.1a9.67 9.67 0 00.75.03c3.29 0 5.73-1.27 8.06-4.7l-.55-.46a7.68 7.68 0 01-2.86 2.09c-.73.3-1.48.48-2.24.53a6.75 6.75 0 01-.47.02zM20.91 9.31l2.64-2.18-.36-.41-.32.24h-1.96V1.9l-.48-.29-4.35 2.81.31.45 1.3-.84v3.99l-2.02 1.65.36.41.32-.24h1.34v7.2l-1.61 1.03.31.46.96-.58 1.97 1.73 4.9-3.1-.31-.45-2.19 1.32-.81-.67V9.31zm30.26 0 2.64-2.18-.36-.41-.31.24h-1.97V1.9l-.48-.29-4.34 2.81.31.45 1.29-.84v3.99l-2.01 1.65.36.41.31-.24h1.34v7.2l-1.6 1.03.31.46.96-.58 1.97 1.73 4.89-3.1-.31-.45-2.18 1.32-.82-.67V9.31zm-7.8 7.25-1.3.86-.93-.74V9.05a3.45 3.45 0 00.58.47 2.44 2.44 0 001.36.39 2.31 2.31 0 001.26-.33c.76-.48 1.17-1.46 1.17-2.88h-.56a1.23 1.23 0 01-.33.46 1.04 1.04 0 01-.67.26c-.41 0-.75-.25-.84-.55a.59.59 0 01-.03-.17h-.55l-1.66 1.89-1.77-1.89-3.22 2.18.34.48.93-.58.8 1.04v6.86l-1.49 1.06.33.45.82-.57 2.64 2.06 3.58-2.59-.46-.53zm-11.4-8.14-2.71-1.7-2.38 1.39a7.25 7.25 0 00-.18.11c-.9.57-1.31 1.12-1.31 1.81 0 .73.46 1.42 1.27 1.93a4.86 4.86 0 00.77.4 6.26 6.26 0 00-1.4.97 4.01 4.01 0 00-1.33 3.01c0 1.88 1.15 3.12 3.09 3.34l2.55-1.85 1.82 1.85 3.48-2.4-.31-.48-1.06.72-1.05-1.06V8.3l1.56-1.1-.31-.48-2.5 1.7zm45.55 7.61 2.67-1.13V2.38l.09-.05.96.48v14.35a6.82 6.82 0 01-.22 0c-1.35 0-2.52-.4-3.5-1.13zM75.79 5.02l1.3-.77v11.42c-1.3-1.17-2.13-3-2.3-5.21a11.19 11.19 0 01-.03-.84 12.02 12.02 0 01.29-2.68c.14-.59.32-1.13.56-1.6a4.64 4.64 0 01.18-.32zM2.11 15.58l6.34-5.96.86.41v5.83a8.24 8.24 0 00-2.82-1.08 6.92 6.92 0 00-1.23-.12 6.24 6.24 0 00-.19.01c-1.11.03-2.23.36-2.96.91zm54.96 0 6.34-5.96.86.41v5.83a8.24 8.24 0 00-2.82-1.08 6.92 6.92 0 00-1.23-.12 6.24 6.24 0 00-.19.01c-1.11.03-2.23.36-2.96.91zm34.49-13.44-2.09 1.36-.4-.55L93.39 0l3.04.84 1.2-.84.41.6-3.29 2.33-3.19-.79zm-78.84 2.52-5.71 5.4-.65-.48V4.66a8.54 8.54 0 001.92.65c.48.1.97.15 1.44.16a6.69 6.69 0 00.1 0c1.05 0 1.99-.26 2.9-.81zm54.96 0-5.71 5.4-.65-.48V4.66a8.54 8.54 0 001.92.65c.48.1.97.15 1.44.16a6.69 6.69 0 00.1 0c1.05 0 1.99-.26 2.9-.81zM9.99 10.37l1.39.67v5.66l-.46.32a3.96 3.96 0 00-.38-.36 7.84 7.84 0 00-.55-.41v-5.88zm54.96 0 1.39.67v5.66l-.46.32a3.96 3.96 0 00-.38-.36 7.84 7.84 0 00-.55-.41v-5.88zm-34.73 2.85v4.32c-.16.05-.34.07-.5.08a1.81 1.81 0 01-.03 0c-1.27 0-2.26-1.37-2.26-3.29a5.02 5.02 0 01.05-.74c.04-.24.09-.46.17-.65a2.12 2.12 0 01.22-.44c.62.24 1.41.48 2.35.72zm-3.17-4.56 3.17 1.88v1.99a12.75 12.75 0 01-1.54-.38c-1.59-.51-2.55-1.26-2.61-2.1a1.2 1.2 0 010-.09 1.16 1.16 0 01.29-.77c.1-.11.22-.22.36-.32a3.08 3.08 0 01.33-.21zm-21.36.46-1.34-.91V3.98l.45-.21c.29.19.58.38.89.53v4.82zm54.96 0-1.34-.91V3.98l.45-.21c.29.19.58.38.89.53v4.82z"
    />
</svg>
